<?xml version="1.0" encoding="iso-8859-1"?>
<!-- Uploaded to: SVG Repo, www.svgrepo.com, Generator: SVG Repo Mixer Tools -->
<svg fill="#000000" height="800px" width="800px" version="1.1" id="Layer_1" xmlns="http://www.w3.org/2000/svg" xmlns:xlink="http://www.w3.org/1999/xlink" 
	 viewBox="0 0 472.615 472.615" xml:space="preserve">
<g>
	<g>
		<path d="M59.077,177.198v216.615h354.462V177.198H59.077z M132.197,335.794l-57.505-57.509l57.505-57.5l13.922,13.922
			l-43.581,43.577l43.581,43.587L132.197,335.794z M157.538,285.506h-19.692v-19.692h19.692V285.506z M177.231,265.814h19.692
			v19.692h-19.692V265.814z M191.091,361.198l64.981-158.846l18.231,7.461L209.322,368.66L191.091,361.198z M285.538,285.506
			h-19.692v-19.692h19.692V285.506z M324.923,285.506h-19.692v-19.692h19.692V285.506z M340.418,335.794l-13.922-13.922
			l43.581-43.587l-43.581-43.577l13.922-13.922l57.505,57.5L340.418,335.794z"/>
	</g>
</g>
<g>
	<g>
		<path d="M0,0v78.737h472.615V0H0z M285.538,49.198H49.231V29.506h236.308V49.198z M354.462,49.198h-19.692V29.506h19.692V49.198z
			 M393.846,49.198h-19.692V29.506h19.692V49.198z M433.231,49.198h-19.692V29.506h19.692V49.198z"/>
	</g>
</g>
<g>
	<g>
		<path d="M0,98.429v374.186h472.615V98.429H0z M433.231,413.506H39.385v-256h393.846V413.506z"/>
	</g>
</g>
</svg>